<svg xmlns="http://www.w3.org/2000/svg" height="800" width="1200" viewBox="-104.9976 -61.88475 909.9792 371.3085"><path d="M115.317 121.952l-18.98 12.115c-23.32-37.79-73.55-19.54-74.257 20-.707 39.54 60.427 58.171 73.652 13.718H57.975v-22.008h62.39C125.433 241.03 3.973 228.846.129 159.723c-3.844-69.123 79.338-92.946 115.188-37.77zm62.355-7.216c-22.38.18-46.073 15.767-47.625 46.375-2.364 46.64 50.885 70.552 78.344 39.593v11.875h22.406v-96.093h-22.406v10.718c-7.635-8.414-18.996-12.563-30.719-12.468zm3.063 20.53c36.39 0 39.785 59.157 0 59.157s-36.39-59.156 0-59.156zm64.812-44.206v121.51h23.018V91.215zm81.688 23.676c-22.38.18-46.073 15.767-47.625 46.375-2.365 46.64 50.884 70.552 78.344 39.593v11.875h22.406v-96.093h-22.406v10.718c-7.635-8.414-18.997-12.563-30.72-12.468zm3.062 20.53c36.39 0 39.786 59.157 0 59.157-39.785 0-36.39-59.156 0-59.156zm56.787-18.766l34.93 47.853-36.141 48.217h27.661l22.21-31.257 23.421 31.257h27.46l-36.545-48.015 34.526-48.054h-26.45l-22.008 30.084-21.806-30.084zm98.936 0l39.977 91.667-16.355 39.372h22.614L585.761 116.5h-23.623L536.9 181.11l-26.652-64.61zM19.212 35.963h14.42C30.896 49.265 44.019 48.8 43.876 41.335c-.213-11.138-24.32-9.972-24.32-26.758C19.556-.353 34.904.063 37.584.063c2.68 0 20.503-1.78 18.177 17.197H42.484c2.364-10.433-9.077-10.547-9.566-4.318-.7 8.909 24.487 10.228 24.202 26.438-.286 16.21-14.594 15.973-18.354 15.973s-20.672.717-19.554-19.39zm168.672-.004h14.42c-2.737 13.301 10.386 12.837 10.243 5.372-.213-11.139-24.32-9.973-24.32-26.759 0-14.93 15.349-14.514 18.029-14.514 2.68 0 20.503-1.778 18.177 17.198h-13.278c2.365-10.433-9.076-10.547-9.565-4.319-.7 8.91 24.487 10.228 24.201 26.439-.285 16.21-14.594 15.972-18.353 15.972-3.76 0-20.672.718-19.554-19.389zM74.607 1.413l-9.28 52.496H79.39l7.317-47.108 6.87 47.108h13.831L98.021 1.413zm44.315 0l-1.125 52.496h13.25l.375-46.11 8.75 46.11h13l8.625-46.61.875 46.61h13.125l-1.625-52.496h-20.75l-6.625 41.51-6.625-41.51zm117.75 0v38.885c0 8.64 7.475 15.025 19.25 15.025 11.776 0 18.375-6.238 18.375-15.025V1.413h-14v38.885c0 4.217-2.007 5.875-4.5 5.875-2.492 0-4.75-1.57-4.75-5.875V1.413zm51.5 0V53.91h12.625l-.5-43.236 13.75 43.236h18.25V1.413h-13l.5 41.385-12.25-41.385zm94.125 38.885v-16.25h-18.875v7.625h5.625v8.625c0 3.108-1.797 4.875-5.125 4.875-3.328 0-4.875-1.577-4.875-4.875v-24.75c0-3.477 1.106-6.125 5-6.125s5 2.416 5 8.5h13.5C382.714 1.413 372.116 0 363.922 0c-8.193 0-18.5 3.243-18.5 15.548v24.75c0 8.338 6.236 13.611 18.75 13.611 12.515 0 18.125-3.93 18.125-13.61zm297.093 82.506c6.191-4.711 11.98-9.019 18.171-13.73-1.548-1.75-11.25-17.768-39.978-17.768s-40.381 19.267-40.381 34.123c0 42.112 59.159 29.072 59.159 52.294 0 14.094-14.369 15.95-17.97 15.95-16.523 0-24.229-12.99-26.652-16.758l-20.594 16.758c15.412 14.807 26.796 20.797 46.842 20.797 20.047 0 41.997-9.726 41.997-37.353 0-40.55-59.36-31.268-59.36-52.496 0-11.94 12.936-13.124 17.161-13.124 14.925 0 20.258 9.759 21.604 11.307z"/></svg>